<?xml version="1.0"?>
<svg xmlns="http://www.w3.org/2000/svg" xmlns:xlink="http://www.w3.org/1999/xlink" version="1.1" id="Capa_1" x="0px" y="0px" viewBox="0 0 512.001 512.001" style="enable-background:new 0 0 512.001 512.001;" xml:space="preserve" width="512px" height="512px" class=""><g><g>
	<g>
		<path d="M36.244,325.851h-0.085c-2.204,0-3.954,1.788-3.954,3.999s1.828,4.001,4.039,4.001c2.203,0,4-1.79,4-4.001    S38.447,325.851,36.244,325.851z" data-original="#000000" class="active-path" data-old_color="#84868b" fill="#84868b"/>
	</g>
</g><g>
	<g>
		<path d="M428.242,317.851h-0.087c-2.202,0-3.953,1.788-3.953,4c0,2.21,1.828,4,4.04,4c2.202,0,4-1.79,4-4    C432.242,319.639,430.444,317.851,428.242,317.851z" data-original="#000000" class="active-path" data-old_color="#84868b" fill="#84868b"/>
	</g>
</g><g>
	<g>
		<path d="M455.844,344.733c-0.618-2.125-2.82-3.367-4.961-2.727c-178.343,51.804-427.684,8.359-430.177,7.906    c-2.188-0.367-4.258,1.062-4.641,3.234c-0.391,2.18,1.063,4.25,3.234,4.642c1.578,0.28,100.773,17.577,218.983,17.577    c70.412,0,147.585-6.141,214.835-25.671C455.234,349.078,456.461,346.859,455.844,344.733z" data-original="#000000" class="active-path" data-old_color="#84868b" fill="#84868b"/>
	</g>
</g><g>
	<g>
		<path d="M455.844,360.733c-0.618-2.118-2.82-3.36-4.961-2.727c-178.343,51.804-427.684,8.352-430.177,7.907    c-2.188-0.337-4.258,1.054-4.641,3.233c-0.391,2.18,1.063,4.251,3.234,4.642c1.578,0.281,100.773,17.577,218.983,17.577    c70.412,0,147.585-6.14,214.835-25.671C455.234,365.077,456.461,362.858,455.844,360.733z" data-original="#000000" class="active-path" data-old_color="#84868b" fill="#84868b"/>
	</g>
</g><g>
	<g>
		<path d="M447.906,297.007c-0.469-2.156-2.562-3.531-4.75-3.062c-181.764,39.352-412.161,0.359-414.474-0.039    c-2.157-0.36-4.242,1.086-4.625,3.266c-0.375,2.172,1.086,4.242,3.265,4.625c1.54,0.266,104.532,17.71,227.288,17.71    c61.874,0,128.803-4.437,190.234-17.75C447.009,301.296,448.375,299.161,447.906,297.007z" data-original="#000000" class="active-path" data-old_color="#84868b" fill="#84868b"/>
	</g>
</g><g>
	<g>
		<path d="M30.83,295.023c-1.562-1.562-4.094-1.562-5.656,0l-24,23.999c-1.219,1.22-1.523,3.079-0.75,4.618l16,31.999    c0.703,1.399,2.117,2.212,3.578,2.212c0.602,0,1.211-0.134,1.789-0.423c1.977-0.992,2.774-3.389,1.789-5.367L8.87,322.64    l21.96-21.962C32.393,299.116,32.393,296.585,30.83,295.023z" data-original="#000000" class="active-path" data-old_color="#84868b" fill="#84868b"/>
	</g>
</g><g>
	<g>
		<path d="M470.217,318.522c-1.819-1.21-4.318-0.726-5.546,1.109l-16.001,24c-1.226,1.836-0.726,4.321,1.11,5.548    c0.68,0.452,1.453,0.671,2.219,0.671c1.29,0,2.555-0.625,3.328-1.78l16-24.001C472.554,322.233,472.054,319.75,470.217,318.522z" data-original="#000000" class="active-path" data-old_color="#84868b" fill="#84868b"/>
	</g>
</g><g>
	<g>
		<path d="M470.827,319.022l-23.999-23.999c-1.562-1.562-4.095-1.562-5.657,0s-1.562,4.093,0,5.655l24,24    c0.782,0.781,1.806,1.173,2.829,1.173c1.022,0,2.046-0.392,2.827-1.173C472.389,323.117,472.389,320.584,470.827,319.022z" data-original="#000000" class="active-path" data-old_color="#84868b" fill="#84868b"/>
	</g>
</g><g>
	<g>
		<path d="M422.288,286.568C280.267,187.394,126.932,125.933,125.4,125.324c-2.048-0.789-4.375,0.18-5.195,2.242    c-0.813,2.055,0.187,4.375,2.241,5.195c1.524,0.602,153.992,61.719,295.264,160.37c0.695,0.485,1.492,0.72,2.29,0.72    c1.258,0,2.499-0.594,3.28-1.713C424.546,290.327,424.1,287.835,422.288,286.568z" data-original="#000000" class="active-path" data-old_color="#84868b" fill="#84868b"/>
	</g>
</g><g>
	<g>
		<path d="M389.96,286.366c-0.648-0.368-65.422-36.832-83.243-46.543c-19.999-10.883-37.718,3.375-55.491,21.133L69.556,167.73    c0.78-6.859,4.101-25.984,17.257-34.633c8.844-5.828,20.86-5.937,35.695-0.312c2.047,0.757,4.368-0.266,5.157-2.328    c0.781-2.062-0.258-4.375-2.328-5.156c-17.367-6.578-31.828-6.203-42.952,1.141c-19.516,12.859-20.993,42.203-21.048,43.445    c-0.062,1.562,0.782,3.015,2.172,3.734l186.665,95.793c1.538,0.789,3.445,0.492,4.671-0.75    c20.453-20.692,33.508-29.754,48.046-21.809c17.772,9.679,82.491,46.113,83.147,46.48c0.617,0.351,1.29,0.516,1.962,0.516    c1.391,0,2.75-0.736,3.482-2.04C392.568,289.889,391.89,287.452,389.96,286.366z" data-original="#000000" class="active-path" data-old_color="#84868b" fill="#84868b"/>
	</g>
</g><g>
	<g>
		<path d="M253.829,246.292L83.017,158.3c-1.961-1.015-4.367-0.242-5.383,1.727c-1.015,1.962-0.242,4.375,1.727,5.383    l170.811,87.992c0.585,0.303,1.211,0.444,1.828,0.444c1.446,0,2.844-0.788,3.556-2.171    C256.571,249.714,255.798,247.299,253.829,246.292z" data-original="#000000" class="active-path" data-old_color="#84868b" fill="#84868b"/>
	</g>
</g><g>
	<g>
		<path d="M509.139,374.016c-33.648-10.001-37.054-27.961-37.187-28.773c-0.336-2.158-2.391-3.642-4.515-3.353    c-2.187,0.311-3.711,2.336-3.399,4.524c0.14,0.96,3.813,23.67,42.82,35.271c0.382,0.11,0.765,0.165,1.141,0.165    c1.727,0,3.32-1.126,3.835-2.858C512.459,376.874,511.256,374.648,509.139,374.016z" data-original="#000000" class="active-path" data-old_color="#84868b" fill="#84868b"/>
	</g>
</g><g>
	<g>
		<path d="M511.882,376.881c-0.532-2.148-2.696-3.436-4.852-2.913c-0.218,0.047-21.094,5.054-45.375-6.173    c-2.015-0.921-4.374-0.056-5.312,1.954c-0.922,2.007-0.055,4.381,1.954,5.312c14.07,6.507,27.053,8.085,36.357,8.085    c8.439,0,13.861-1.304,14.315-1.414C511.117,381.193,512.414,379.022,511.882,376.881z" data-original="#000000" class="active-path" data-old_color="#84868b" fill="#84868b"/>
	</g>
</g></g> </svg>
