<?xml version="1.0"?>
<svg xmlns="http://www.w3.org/2000/svg" xmlns:xlink="http://www.w3.org/1999/xlink" version="1.1" id="Capa_1" x="0px" y="0px" viewBox="0 0 511.997 511.997" style="enable-background:new 0 0 511.997 511.997;" xml:space="preserve" width="512px" height="512px"><g><g>
	<g>
		<path d="M123.999,0.001c-2.211,0-4,1.789-4,4V108c0,2.211,1.789,4,4,4s4-1.789,4-4V4.001C128,1.79,126.21,0.001,123.999,0.001z" data-original="#000000" class="active-path" data-old_color="#84868b" fill="#84868b"/>
	</g>
</g><g>
	<g>
		<path d="M283.999,0.001c-2.211,0-3.999,1.789-3.999,4V108c0,2.211,1.788,4,3.999,4s4.001-1.789,4.001-4V4.001    C288,1.79,286.21,0.001,283.999,0.001z" data-original="#000000" class="active-path" data-old_color="#84868b" fill="#84868b"/>
	</g>
</g><g>
	<g>
		<path d="M140,0c-2.211,0-4,1.789-4,4v8c0,2.211,1.789,4,4,4s4-1.788,4-4V4C144,1.789,142.211,0,140,0z" data-original="#000000" class="active-path" data-old_color="#84868b" fill="#84868b"/>
	</g>
</g><g>
	<g>
		<path d="M156,0c-2.211,0-4,1.789-4,4v8c0,2.211,1.789,4,4,4s4-1.788,4-4V4C160,1.789,158.211,0,156,0z" data-original="#000000" class="active-path" data-old_color="#84868b" fill="#84868b"/>
	</g>
</g><g>
	<g>
		<path d="M172,0c-2.211,0-4,1.789-4,4v8c0,2.211,1.789,4,4,4s4-1.788,4-4V4C176,1.789,174.211,0,172,0z" data-original="#000000" class="active-path" data-old_color="#84868b" fill="#84868b"/>
	</g>
</g><g>
	<g>
		<path d="M188,0c-2.211,0-4,1.789-4,4v8c0,2.211,1.789,4,4,4s4-1.788,4-4V4C192,1.789,190.211,0,188,0z" data-original="#000000" class="active-path" data-old_color="#84868b" fill="#84868b"/>
	</g>
</g><g>
	<g>
		<path d="M203.999,0c-2.21,0-4,1.789-4,4v8c0,2.211,1.79,4,4,4c2.211,0,4.001-1.788,4.001-4V4C208,1.789,206.21,0,203.999,0z" data-original="#000000" class="active-path" data-old_color="#84868b" fill="#84868b"/>
	</g>
</g><g>
	<g>
		<path d="M219.999,0C217.788,0,216,1.789,216,4v8c0,2.211,1.788,4,3.999,4c2.212,0,4-1.788,4-4V4    C223.999,1.789,222.211,0,219.999,0z" data-original="#000000" class="active-path" data-old_color="#84868b" fill="#84868b"/>
	</g>
</g><g>
	<g>
		<path d="M235.999,0c-2.211,0-4,1.789-4,4v8c0,2.211,1.789,4,4,4s4-1.788,4-4V4C239.999,1.789,238.21,0,235.999,0z" data-original="#000000" class="active-path" data-old_color="#84868b" fill="#84868b"/>
	</g>
</g><g>
	<g>
		<path d="M251.999,0C249.788,0,248,1.789,248,4v8c0,2.211,1.788,4,3.999,4c2.212,0,4-1.788,4-4V4    C255.999,1.789,254.211,0,251.999,0z" data-original="#000000" class="active-path" data-old_color="#84868b" fill="#84868b"/>
	</g>
</g><g>
	<g>
		<path d="M267.999,0c-2.21,0-4,1.789-4,4v8c0,2.211,1.79,4,4,4c2.211,0,4-1.788,4-4V4C271.999,1.789,270.21,0,267.999,0z" data-original="#000000" class="active-path" data-old_color="#84868b" fill="#84868b"/>
	</g>
</g><g>
	<g>
		<path d="M267.999,24H140c-2.211,0-4,1.789-4,4s1.789,4,4,4h127.999c2.211,0,4-1.789,4-4S270.21,24,267.999,24z" data-original="#000000" class="active-path" data-old_color="#84868b" fill="#84868b"/>
	</g>
</g><g>
	<g>
		<path d="M203.999,151.999C144.738,151.999,144,45.079,144,44c0-2.211-1.793-4-4-4c-2.211,0-4,1.789-4,4    c0,4.734,0.773,115.999,67.999,115.999c2.211,0,4.001-1.789,4.001-4S206.21,151.999,203.999,151.999z" data-original="#000000" class="active-path" data-old_color="#84868b" fill="#84868b"/>
	</g>
</g><g>
	<g>
		<path d="M267.999,40c-2.21,0-4,1.789-4,4c0,1.078-0.688,107.999-60,107.999c-2.21,0-4,1.789-4,4s1.79,4,4,4    c67.227,0,68-111.264,68-115.999C271.999,41.789,270.21,40,267.999,40z" data-original="#000000" class="active-path" data-old_color="#84868b" fill="#84868b"/>
	</g>
</g><g>
	<g>
		<path d="M132,104c-2.211,0-4,1.789-4,4v127.999c0,2.211,1.789,4,4,4s4-1.789,4-4V108C136,105.789,134.211,104,132,104z" data-original="#000000" class="active-path" data-old_color="#84868b" fill="#84868b"/>
	</g>
</g><g>
	<g>
		<path d="M276,104c-2.211,0-4.001,1.789-4.001,4v127.999c0,2.211,1.79,4,4.001,4c2.21,0,4-1.789,4-4V108    C280,105.789,278.21,104,276,104z" data-original="#000000" class="active-path" data-old_color="#84868b" fill="#84868b"/>
	</g>
</g><g>
	<g>
		<path d="M260,175.999H148c-2.211,0-4,1.789-4,4s1.789,4,4,4h112c2.21,0,3.999-1.789,3.999-4S262.21,175.999,260,175.999z" data-original="#000000" class="active-path" data-old_color="#84868b" fill="#84868b"/>
	</g>
</g><g>
	<g>
		<path d="M260,223.999H148c-2.211,0-4,1.789-4,4c0,2.21,1.789,4,4,4h112c2.21,0,3.999-1.789,3.999-4    C263.999,225.789,262.21,223.999,260,223.999z" data-original="#000000" class="active-path" data-old_color="#84868b" fill="#84868b"/>
	</g>
</g><g>
	<g>
		<path d="M156,191.999c-2.211,0-4,1.789-4,4v16c0,2.211,1.789,4,4,4s4-1.789,4-4v-16C160,193.788,158.211,191.999,156,191.999z" data-original="#000000" class="active-path" data-old_color="#84868b" fill="#84868b"/>
	</g>
</g><g>
	<g>
		<path d="M172,191.999c-2.211,0-4,1.789-4,4v16c0,2.211,1.789,4,4,4s4-1.789,4-4v-16C176,193.788,174.211,191.999,172,191.999z" data-original="#000000" class="active-path" data-old_color="#84868b" fill="#84868b"/>
	</g>
</g><g>
	<g>
		<path d="M188,191.999c-2.211,0-4,1.789-4,4v16c0,2.211,1.789,4,4,4s4-1.789,4-4v-16C192,193.788,190.211,191.999,188,191.999z" data-original="#000000" class="active-path" data-old_color="#84868b" fill="#84868b"/>
	</g>
</g><g>
	<g>
		<path d="M203.999,191.999c-2.21,0-4,1.789-4,4v16c0,2.211,1.79,4,4,4c2.211,0,4.001-1.789,4.001-4v-16    C208,193.788,206.21,191.999,203.999,191.999z" data-original="#000000" class="active-path" data-old_color="#84868b" fill="#84868b"/>
	</g>
</g><g>
	<g>
		<path d="M219.999,191.999c-2.211,0-3.999,1.789-3.999,4v16c0,2.211,1.788,4,3.999,4c2.212,0,4-1.789,4-4v-16    C223.999,193.788,222.211,191.999,219.999,191.999z" data-original="#000000" class="active-path" data-old_color="#84868b" fill="#84868b"/>
	</g>
</g><g>
	<g>
		<path d="M235.999,191.999c-2.211,0-4,1.789-4,4v16c0,2.211,1.789,4,4,4s4-1.789,4-4v-16    C239.999,193.788,238.21,191.999,235.999,191.999z" data-original="#000000" class="active-path" data-old_color="#84868b" fill="#84868b"/>
	</g>
</g><g>
	<g>
		<path d="M251.999,191.999c-2.211,0-3.999,1.789-3.999,4v16c0,2.211,1.788,4,3.999,4c2.212,0,4-1.789,4-4v-16    C255.999,193.788,254.211,191.999,251.999,191.999z" data-original="#000000" class="active-path" data-old_color="#84868b" fill="#84868b"/>
	</g>
</g><g>
	<g>
		<path d="M180,439.997c-26.73,0-44-80.076-44-203.998c0-2.211-1.789-4-4-4s-4,1.789-4,4c0,63.742,5.066,211.999,52,211.999    c2.211,0,4-1.79,4-4.001C184,441.787,182.211,439.997,180,439.997z" data-original="#000000" class="active-path" data-old_color="#84868b" fill="#84868b"/>
	</g>
</g><g>
	<g>
		<path d="M276,231.999c-2.211,0-4.001,1.789-4.001,4c0,123.922-17.269,203.998-43.999,203.998c-2.212,0-4.001,1.79-4.001,4    c0,2.211,1.789,4.001,4.001,4.001c46.937,0,52-148.257,52-211.999C280,233.788,278.21,231.999,276,231.999z" data-original="#000000" class="active-path" data-old_color="#84868b" fill="#84868b"/>
	</g>
</g><g>
	<g>
		<path d="M203.999,255.999c-24.827,0-27.999,0.742-27.999,20c0,15.515,7.594,44,20,44h16c12.406,0,19.999-28.485,19.999-44    C231.999,256.741,228.827,255.999,203.999,255.999z M212,311.998h-16c-3.578,0-12-18.828-12-35.999c0-5.726,0-9.86,1.219-10.672    c1.992-1.328,8.672-1.328,18.78-1.328c10.11,0,16.789,0,18.782,1.328c1.218,0.812,1.218,4.946,1.218,10.672    C223.999,293.17,215.578,311.998,212,311.998z" data-original="#000000" class="active-path" data-old_color="#84868b" fill="#84868b"/>
	</g>
</g><g>
	<g>
		<path d="M196,447.998c-2.212,0-4,1.789-4,4v7.999c0,2.211,1.788,4.001,4,4.001c2.211,0,3.999-1.79,3.999-4.001v-7.999    C199.999,449.787,198.211,447.998,196,447.998z" data-original="#000000" class="active-path" data-old_color="#84868b" fill="#84868b"/>
	</g>
</g><g>
	<g>
		<path d="M212,447.998c-2.211,0-4,1.789-4,4v7.999c0,2.211,1.789,4.001,4,4.001s4-1.79,4-4.001v-7.999    C216,449.787,214.211,447.998,212,447.998z" data-original="#000000" class="active-path" data-old_color="#84868b" fill="#84868b"/>
	</g>
</g><g>
	<g>
		<path d="M243.999,487.998c-15.437,0-27.999-12.563-27.999-28.001c0-2.211-1.789-3.999-4-3.999s-4,1.788-4,3.999    c0,19.853,16.148,36,35.999,36c2.211,0,4.001-1.789,4.001-4C248,489.787,246.21,487.998,243.999,487.998z" data-original="#000000" class="active-path" data-old_color="#84868b" fill="#84868b"/>
	</g>
</g><g>
	<g>
		<path d="M243.999,503.997c-24.262,0-44-19.742-44-44c0-2.211-1.788-3.999-3.999-3.999c-2.212,0-4,1.788-4,3.999    c0,28.672,23.327,52,51.999,52c2.211,0,4.001-1.789,4.001-4C248,505.787,246.21,503.997,243.999,503.997z" data-original="#000000" class="active-path" data-old_color="#84868b" fill="#84868b"/>
	</g>
</g><g>
	<g>
		<path d="M213.048,443.544c-1.491-1.617-4.273-3.548-9.047-3.548s-7.554,1.931-9.046,3.548c-3.27,3.553-2.985,8.259-2.938,8.781    c0.179,2.203,2.022,3.797,4.316,3.656c2.199-0.179,3.836-2.117,3.651-4.312c0-0.015-0.043-1.726,0.855-2.703    c1.181-1.282,5.102-1.29,6.298-0.023c0.929,0.977,0.875,2.727,0.875,2.727s0,0,0.004,0c-0.185,2.195,1.453,4.132,3.652,4.312    c0.113,0.008,0.227,0.016,0.335,0.016c2.058,0,3.809-1.578,3.983-3.673C216.033,451.803,216.319,447.098,213.048,443.544z" data-original="#000000" class="active-path" data-old_color="#84868b" fill="#84868b"/>
	</g>
</g><g>
	<g>
		<path d="M387.999,487.998h-144c-2.21,0-4,1.789-4,3.999c0,2.211,1.79,4,4,4h144c2.211,0,3.999-1.789,3.999-4    C391.998,489.787,390.21,487.998,387.999,487.998z" data-original="#000000" class="active-path" data-old_color="#84868b" fill="#84868b"/>
	</g>
</g><g>
	<g>
		<path d="M387.999,503.997h-144c-2.21,0-4,1.79-4,4c0,2.211,1.79,4,4,4h144c2.211,0,3.999-1.789,3.999-4    C391.998,505.787,390.21,503.997,387.999,503.997z" data-original="#000000" class="active-path" data-old_color="#84868b" fill="#84868b"/>
	</g>
</g><g>
	<g>
		<path d="M203.999,152c-2.21,0-4,1.789-4,4v8c0,2.21,1.79,4,4,4c2.211,0,4.001-1.79,4.001-4v-8C208,153.789,206.21,152,203.999,152    z" data-original="#000000" class="active-path" data-old_color="#84868b" fill="#84868b"/>
	</g>
</g><g>
	<g>
		<path d="M228,375.998h-48c-2.211,0-4,1.79-4,3.999c0,2.211,1.789,4.001,4,4.001h48c2.21,0,3.999-1.79,3.999-4.001    C231.999,377.788,230.21,375.998,228,375.998z" data-original="#000000" class="active-path" data-old_color="#84868b" fill="#84868b"/>
	</g>
</g><g>
	<g>
		<path d="M212,391.998h-16c-2.212,0-4,1.789-4,4s1.788,4.001,4,4.001h16c2.211,0,4-1.79,4-4.001S214.211,391.998,212,391.998z" data-original="#000000" class="active-path" data-old_color="#84868b" fill="#84868b"/>
	</g>
</g><g>
	<g>
		<path d="M203.999,279.999c-2.21,0-4,1.789-4,4v7.999c0,2.211,1.79,4.001,4,4.001c2.211,0,4.001-1.79,4.001-4.001v-7.999    C208,281.788,206.21,279.999,203.999,279.999z" data-original="#000000" class="active-path" data-old_color="#84868b" fill="#84868b"/>
	</g>
</g></g> </svg>
