<?xml version="1.0"?>
<svg xmlns="http://www.w3.org/2000/svg" xmlns:xlink="http://www.w3.org/1999/xlink" version="1.1" id="Capa_1" x="0px" y="0px" viewBox="0 0 511.996 511.996" style="enable-background:new 0 0 511.996 511.996;" xml:space="preserve" width="512px" height="512px" class=""><g><g>
	<g>
		<path d="M367.967,31.47c-0.306-2.196-2.36-3.727-4.5-3.438l-239.995,32c-2.191,0.296-3.73,2.304-3.437,4.5    c0.27,2.008,1.984,3.469,3.961,3.469c0.175,0,0.351-0.007,0.531-0.031l240.002-32C366.716,35.673,368.256,33.666,367.967,31.47z" data-original="#000000" class="active-path" data-old_color="#84868b" fill="#84868b"/>
	</g>
</g><g>
	<g>
		<path d="M364.529,204.031l-240.002-32c-2.199-0.296-4.199,1.25-4.492,3.438c-0.293,2.195,1.246,4.203,3.437,4.5l239.995,32    c0.18,0.023,0.359,0.031,0.539,0.031c1.968,0,3.686-1.461,3.961-3.469C368.256,206.336,366.716,204.328,364.529,204.031z" data-original="#000000" class="active-path" data-old_color="#84868b" fill="#84868b"/>
	</g>
</g><g>
	<g>
		<path d="M363.998,28.001c-2.211,0-4,1.789-4,4s1.789,4,4,4c46.319,0,83.999,37.68,83.999,83.999c0,46.321-37.68,84-83.999,84    c-2.211,0-4,1.789-4,4c0,2.21,1.789,4,4,4c50.726,0,91.999-41.273,91.999-92C455.997,69.274,414.724,28.001,363.998,28.001z" data-original="#000000" class="active-path" data-old_color="#84868b" fill="#84868b"/>
	</g>
</g><g>
	<g>
		<path d="M123.999,60.001c-2.211,0-4,1.789-4,4v111.999c0,2.211,1.789,4,4,4s4-1.789,4-4V64.001    C127.999,61.79,126.21,60.001,123.999,60.001z" data-original="#000000" class="active-path" data-old_color="#84868b" fill="#84868b"/>
	</g>
</g><g>
	<g>
		<path d="M433.661,68.001h-13.663c-2.211,0-4,1.789-4,4s1.789,4,4,4h13.663c2.211,0,4-1.789,4-4S435.872,68.001,433.661,68.001z" data-original="#000000" class="active-path" data-old_color="#84868b" fill="#84868b"/>
	</g>
</g><g>
	<g>
		<path d="M433.653,164.001h-13.655c-2.211,0-4,1.789-4,4s1.789,4,4,4h13.655c2.211,0,4-1.789,4-4S435.864,164.001,433.653,164.001z    " data-original="#000000" class="active-path" data-old_color="#84868b" fill="#84868b"/>
	</g>
</g><g>
	<g>
		<path d="M450.216,100.001h-30.218c-2.211,0-4,1.789-4,4s1.789,4,4,4h30.218c2.211,0,4-1.789,4-4S452.427,100.001,450.216,100.001z    " data-original="#000000" class="active-path" data-old_color="#84868b" fill="#84868b"/>
	</g>
</g><g>
	<g>
		<path d="M450.216,132.001h-30.218c-2.211,0-4,1.789-4,4s1.789,4,4,4h30.218c2.211,0,4-1.788,4-4    C454.216,133.79,452.427,132.001,450.216,132.001z" data-original="#000000" class="active-path" data-old_color="#84868b" fill="#84868b"/>
	</g>
</g><g>
	<g>
		<path d="M147.999,76.001c-2.21,0-4,1.79-4,4v80.007c0,2.212,1.789,4,4,4s4-1.788,4-4V80.001    C151.999,77.791,150.209,76.001,147.999,76.001z" data-original="#000000" class="active-path" data-old_color="#84868b" fill="#84868b"/>
	</g>
</g><g>
	<g>
		<path d="M392.849,213.658c-0.852-2.032-3.187-2.985-5.235-2.141c-5.147,2.164-34.241,62.773-26.445,171.967    c0.157,2.11,1.907,3.719,3.985,3.719c0.103,0,0.197,0,0.288-0.007c2.21-0.155,3.867-2.07,3.711-4.273    c-7.851-109.929,21.203-162.163,22.843-164.89C393.106,216.915,393.496,215.197,392.849,213.658z" data-original="#000000" class="active-path" data-old_color="#84868b" fill="#84868b"/>
	</g>
</g><g>
	<g>
		<path d="M334.075,212.314c-1.938-1.031-4.359-0.32-5.399,1.633c-0.788,1.476-19.249,37.171-8.655,130.506    c0.235,2.04,1.961,3.548,3.969,3.548c0.156,0,0.306-0.008,0.46-0.024c2.195-0.251,3.772-2.235,3.523-4.431    c-10.265-90.358,7.578-125.491,7.757-125.834C336.763,215.767,336.02,213.345,334.075,212.314z" data-original="#000000" class="active-path" data-old_color="#84868b" fill="#84868b"/>
	</g>
</g><g>
	<g>
		<path d="M368.366,380.806c-1.336-1.774-3.844-2.118-5.602-0.806c-1.766,1.345-4.626,0.648-6.711-0.17    c-10.687-4.189-25.296-21.063-28.117-36.548c-0.398-2.179-2.538-3.563-4.656-3.219c-2.172,0.399-3.611,2.484-3.22,4.656    c3.43,18.782,20.18,37.499,33.07,42.556c2.72,1.061,5.07,1.482,7.078,1.482c3.329,0,5.728-1.14,7.353-2.348    C369.327,385.079,369.686,382.572,368.366,380.806z" data-original="#000000" class="active-path" data-old_color="#84868b" fill="#84868b"/>
	</g>
</g><g>
	<g>
		<path d="M355.998,395.999c-2.211,0-4,1.79-4,4.001v31.998c0,2.211,1.789,4.001,4,4.001c2.21,0,4-1.79,4-4.001v-31.998    C359.998,397.79,358.208,395.999,355.998,395.999z" data-original="#000000" class="active-path" data-old_color="#84868b" fill="#84868b"/>
	</g>
</g><g>
	<g>
		<path d="M326.772,228.001h-18.774c-2.21,0-4,1.789-4,4s1.79,4,4,4h18.774c2.21,0,4-1.789,4-4S328.982,228.001,326.772,228.001z" data-original="#000000" class="active-path" data-old_color="#84868b" fill="#84868b"/>
	</g>
</g><g>
	<g>
		<path d="M307.998,228.001c-2.21,0-4,1.789-4,4v32c0,2.21,1.79,4,4,4c2.211,0,4-1.79,4-4v-32    C311.998,229.79,310.209,228.001,307.998,228.001z" data-original="#000000" class="active-path" data-old_color="#84868b" fill="#84868b"/>
	</g>
</g><g>
	<g>
		<path d="M321.818,260.001h-13.82c-2.21,0-4,1.788-4,3.999c0,2.21,1.79,4,4,4h13.82c2.211,0,4.001-1.79,4.001-4    C325.819,261.79,324.029,260.001,321.818,260.001z" data-original="#000000" class="active-path" data-old_color="#84868b" fill="#84868b"/>
	</g>
</g><g>
	<g>
		<path d="M403.998,475.999c-24.258,0-44-19.743-44-44.001c0-2.21-1.79-3.999-4-3.999c-2.211,0-4,1.789-4,3.999    c0,28.672,23.328,52,52,52c2.21,0,4-1.789,4-4S406.208,475.999,403.998,475.999z" data-original="#000000" class="active-path" data-old_color="#84868b" fill="#84868b"/>
	</g>
</g><g>
	<g>
		<path d="M507.997,475.999H403.998c-2.211,0-4,1.788-4,3.999s1.789,4,4,4h103.999c2.21,0,3.999-1.789,3.999-4    S510.207,475.999,507.997,475.999z" data-original="#000000" class="active-path" data-old_color="#84868b" fill="#84868b"/>
	</g>
</g><g>
	<g>
		<path d="M278.842,113.188c-14.657-14.852-1.562-28.805-0.023-30.352c1.555-1.555,1.563-4.086,0.016-5.648    c-1.562-1.562-4.07-1.594-5.649-0.031c-0.21,0.203-5.202,5.194-7.733,12.734c-2.407,7.194-3.024,18.046,7.694,28.921    c14.665,14.86,1.57,28.805,0.031,30.352c-1.555,1.555-1.563,4.086-0.016,5.648c0.79,0.79,1.814,1.188,2.844,1.188    c1.008,0,2.023-0.382,2.797-1.148c0.217-0.211,5.21-5.195,7.733-12.734C288.95,134.923,289.568,124.063,278.842,113.188z" data-original="#000000" class="active-path" data-old_color="#84868b" fill="#84868b"/>
	</g>
</g><g>
	<g>
		<path d="M238.845,113.188c-14.659-14.852-1.57-28.805-0.027-30.352c1.555-1.555,1.567-4.086,0.012-5.648    c-1.559-1.57-4.074-1.594-5.641-0.031c-0.211,0.203-5.21,5.194-7.734,12.734c-2.409,7.194-3.027,18.046,7.696,28.921    c14.66,14.86,1.57,28.805,0.027,30.352c-1.555,1.555-1.567,4.086-0.012,5.648c0.782,0.79,1.813,1.188,2.84,1.188    c1.012,0,2.023-0.382,2.801-1.148c0.211-0.211,5.21-5.195,7.734-12.734C248.951,134.923,249.568,124.063,238.845,113.188z" data-original="#000000" class="active-path" data-old_color="#84868b" fill="#84868b"/>
	</g>
</g><g>
	<g>
		<path d="M318.842,113.188c-14.657-14.852-1.562-28.805-0.023-30.352c1.554-1.555,1.562-4.086,0.016-5.648    c-1.562-1.562-4.063-1.594-5.649-0.031c-0.21,0.203-5.203,5.194-7.734,12.734c-2.407,7.194-3.024,18.046,7.695,28.921    c14.664,14.86,1.569,28.805,0.031,30.352c-1.555,1.555-1.563,4.086-0.016,5.648c0.79,0.79,1.813,1.188,2.844,1.188    c1.008,0,2.023-0.382,2.797-1.148c0.217-0.211,5.21-5.195,7.733-12.734C328.95,134.923,329.568,124.063,318.842,113.188z" data-original="#000000" class="active-path" data-old_color="#84868b" fill="#84868b"/>
	</g>
</g><g>
	<g>
		<path d="M395.997,52.001c-2.21,0-4,1.789-4,4v127.999c0,2.211,1.79,4,4,4c2.211,0,4.001-1.789,4.001-4V56.001    C399.998,53.79,398.208,52.001,395.997,52.001z" data-original="#000000" class="active-path" data-old_color="#84868b" fill="#84868b"/>
	</g>
</g><g>
	<g>
		<path d="M99.999,116.001H4c-2.211,0-4,1.789-4,4s1.789,4,4,4h95.999c2.211,0,4-1.789,4-4S102.21,116.001,99.999,116.001z" data-original="#000000" class="active-path" data-old_color="#84868b" fill="#84868b"/>
	</g>
</g><g>
	<g>
		<path d="M99.999,76.001h-40c-2.211,0-4,1.79-4,4s1.79,4,4,4h40c2.211,0,4-1.789,4-4C103.999,77.791,102.21,76.001,99.999,76.001z" data-original="#000000" class="active-path" data-old_color="#84868b" fill="#84868b"/>
	</g>
</g><g>
	<g>
		<path d="M99.999,156.009h-40c-2.211,0-4,1.788-4,4c0,2.212,1.79,4,4,4h40c2.211,0,4-1.789,4-4S102.21,156.009,99.999,156.009z" data-original="#000000" class="active-path" data-old_color="#84868b" fill="#84868b"/>
	</g>
</g></g> </svg>
