<?xml version="1.0" encoding="iso-8859-1"?>
<!-- Generator: Adobe Illustrator 19.0.0, SVG Export Plug-In . SVG Version: 6.00 Build 0)  -->
<svg version="1.1" id="Capa_1" xmlns="http://www.w3.org/2000/svg" xmlns:xlink="http://www.w3.org/1999/xlink" x="0px" y="0px"
	 viewBox="0 0 512 512" style="enable-background:new 0 0 512 512;" xml:space="preserve">
<path style="fill:#303C42;" d="M256,0C114.844,0,0,114.844,0,256s114.844,256,256,256s256-114.844,256-256S397.156,0,256,0z"/>
<path style="fill:#F1D3B5;" d="M256,490.667C126.604,490.667,21.333,385.396,21.333,256S126.604,21.333,256,21.333
	S490.667,126.604,490.667,256S385.396,490.667,256,490.667z"/>
<path style="opacity:0.2;fill:#FFFFFF;enable-background:new    ;" d="M32,277.333C32,147.938,137.271,42.667,266.667,42.667
	c87.715,0,164.224,48.452,204.49,119.923C434.969,79.568,352.197,21.333,256,21.333C126.604,21.333,21.333,126.604,21.333,256
	c0,41.681,11.043,80.781,30.177,114.743C39.021,342.091,32,310.533,32,277.333z"/>
<path style="fill:#303C42;" d="M373.333,405.333c-5.629,0-10.624-0.977-15.241-2.5c2.833-5.704,4.574-12.042,4.574-18.833
	c0-23.531-19.135-42.667-42.667-42.667c-2.84,0-5.608,0.307-8.294,0.839l-35.895-74.547l64.803-167.781
	c2.063-5.344-0.458-11.354-5.708-13.635c-5.24-2.25-11.365,0.031-13.854,5.167L256,226.479L190.948,91.375
	c-2.49-5.156-8.604-7.458-13.865-5.156c-5.25,2.281-7.771,8.313-5.688,13.646l65.039,167.243l-36.141,75.064
	c-2.686-0.531-5.454-0.839-8.294-0.839c-23.531,0-42.667,19.135-42.667,42.667s19.135,42.667,42.667,42.667
	s42.667-19.135,42.667-42.667c0-12.15-5.161-23.061-13.335-30.839l30.283-54.495H256h4.385l30.283,54.495
	c-8.173,7.777-13.335,18.689-13.335,30.839c0,23.531,19.135,42.667,42.667,42.667c8.507,0,16.396-2.565,23.057-6.87
	c8.853,4.505,18.967,6.87,30.276,6.87c5.896,0,10.667-4.771,10.667-10.667C384,410.104,379.229,405.333,373.333,405.333z
	 M192,405.333c-11.76,0-21.333-9.573-21.333-21.333c0-11.76,9.573-21.333,21.333-21.333c11.76,0,21.333,9.573,21.333,21.333
	C213.333,395.76,203.76,405.333,192,405.333z M298.667,384c0-11.76,9.573-21.333,21.333-21.333c11.76,0,21.333,9.573,21.333,21.333
	c0,11.76-9.573,21.333-21.333,21.333C308.24,405.333,298.667,395.76,298.667,384z"/>
<linearGradient id="SVGID_1_" gradientUnits="userSpaceOnUse" x1="-45.5784" y1="639.555" x2="-23.8278" y2="629.4138" gradientTransform="matrix(21.3333 0 0 -21.3333 996.3334 13791.667)">
	<stop  offset="0" style="stop-color:#FFFFFF;stop-opacity:0.2"/>
	<stop  offset="1" style="stop-color:#FFFFFF;stop-opacity:0"/>
</linearGradient>
<path style="fill:url(#SVGID_1_);" d="M256,0C114.844,0,0,114.844,0,256s114.844,256,256,256s256-114.844,256-256S397.156,0,256,0z"
	/>
<g>
</g>
<g>
</g>
<g>
</g>
<g>
</g>
<g>
</g>
<g>
</g>
<g>
</g>
<g>
</g>
<g>
</g>
<g>
</g>
<g>
</g>
<g>
</g>
<g>
</g>
<g>
</g>
<g>
</g>
</svg>
